PathFileType	4	(X/Y/Z)	 3.0Hz3min.trc
DataRate	CameraRate	NumFrames	NumMarkers	Units	OrigDataRate	OrigDataStartFrame	OrigNumFrames
200	200	8	43	m	200	874	998
Frame#	Time	C7			LSH			RSH			MAN			RASI			LASI			HIPR			HIPL			RPSI			LPSI			COX			RTHI1			RTHI2			RTHI3			RTHI4			RLKN			RMKN			RSHA1			RSHA2			RSHA3			RSHA4			RLMAL			RMMAL			RHEEL			RMET5			RMET1			RTOE			LTHI1			LTHI2			LTHI3			LTHI4			LLKN			LMKN			LSHA1			LSHA2			LSHA3			LSHA4			LLMAL			LMMAL			LHEEL			LMET5			LMET1			LTOE			
		X1	Y1	Z1	X2	Y2	Z2	X3	Y3	Z3	X4	Y4	Z4	X5	Y5	Z5	X6	Y6	Z6	X7	Y7	Z7	X8	Y8	Z8	X9	Y9	Z9	X10	Y10	Z10	X11	Y11	Z11	X12	Y12	Z12	X13	Y13	Z13	X14	Y14	Z14	X15	Y15	Z15	X16	Y16	Z16	X17	Y17	Z17	X18	Y18	Z18	X19	Y19	Z19	X20	Y20	Z20	X21	Y21	Z21	X22	Y22	Z22	X23	Y23	Z23	X24	Y24	Z24	X25	Y25	Z25	X26	Y26	Z26	X27	Y27	Z27	X28	Y28	Z28	X29	Y29	Z29	X30	Y30	Z30	X31	Y31	Z31	X32	Y32	Z32	X33	Y33	Z33	X34	Y34	Z34	X35	Y35	Z35	X36	Y36	Z36	X37	Y37	Z37	X38	Y38	Z38	X39	Y39	Z39	X40	Y40	Z40	X41	Y41	Z41	X42	Y42	Z42	X43	Y43	Z43	
874	4.3700	-0.219313	1.423632	-0.566621	-0.131021	1.414091	-0.700001	-0.164191	1.403425	-0.406794	-0.098764	1.363195	-0.549216	-0.093525	0.927087	-0.438694	-0.085805	0.929291	-0.665423	-0.153103	1.005023	-0.411467	-0.148428	0.985691	-0.701612	-0.251674	0.986184	-0.505044	-0.251667	0.979616	-0.590000	-0.254600	0.981824	-0.552231	-0.229311	0.758520	-0.381725	-0.217410	0.700381	-0.373139	-0.156198	0.711553	-0.354579	-0.159866	0.772807	-0.361593	-0.206065	0.516909	-0.374490	-0.168316	0.487396	-0.501086	-0.285013	0.390141	-0.371268	-0.286329	0.348247	-0.382222	-0.232836	0.384215	-0.350350	-0.232112	0.344345	-0.355036	-0.262386	0.142012	-0.378747	-0.218905	0.149907	-0.449532	-0.303468	0.137938	-0.435684	-0.190932	0.054881	-0.338388	-0.139903	0.055929	-0.395690	-0.122131	0.048884	-0.385383	-0.205298	0.746438	-0.732260	-0.191963	0.686436	-0.738331	-0.127578	0.695175	-0.742183	-0.133511	0.754742	-0.737761	-0.197854	0.505745	-0.732466	-0.162123	0.487557	-0.610553	-0.274574	0.346564	-0.737193	-0.277659	0.306683	-0.729779	-0.219540	0.303724	-0.749683	-0.223713	0.347366	-0.755742	-0.249488	0.142620	-0.741017	-0.219595	0.154515	-0.663441	-0.301550	0.139526	-0.683097	-0.187030	0.057149	-0.764812	-0.142563	0.050842	-0.702575	-0.125102	0.037876	-0.710416	
875	4.3750	-0.219316	1.425452	-0.566739	-0.131071	1.415934	-0.699426	-0.164213	1.405378	-0.407059	-0.098747	1.364979	-0.549030	-0.093830	0.928944	-0.438632	-0.085777	0.931488	-0.664988	-0.153187	1.007080	-0.411545	-0.148133	0.988226	-0.701445	-0.251906	0.988866	-0.504981	-0.251757	0.982449	-0.590026	-0.254872	0.984617	-0.552293	-0.229275	0.760129	-0.381824	-0.217368	0.702019	-0.373130	-0.156230	0.713225	-0.354370	-0.159931	0.774482	-0.361451	-0.205519	0.518370	-0.374354	-0.168303	0.488626	-0.501159	-0.284670	0.391629	-0.371079	-0.286176	0.349810	-0.382015	-0.232506	0.385628	-0.350294	-0.231799	0.345806	-0.354961	-0.262543	0.143573	-0.379021	-0.218989	0.151423	-0.449766	-0.303529	0.139054	-0.436140	-0.190719	0.057663	-0.337774	-0.139500	0.058475	-0.394785	-0.121675	0.051604	-0.384386	-0.205101	0.749039	-0.732229	-0.191993	0.689006	-0.738460	-0.127557	0.697502	-0.742031	-0.133258	0.757066	-0.737410	-0.198237	0.507464	-0.732377	-0.163173	0.489230	-0.610227	-0.274612	0.347842	-0.736903	-0.277318	0.307925	-0.729306	-0.219470	0.305239	-0.749772	-0.223863	0.348865	-0.755740	-0.248911	0.144154	-0.741345	-0.219102	0.156006	-0.663767	-0.301068	0.140894	-0.683577	-0.186196	0.059011	-0.765113	-0.141916	0.052446	-0.703012	-0.124444	0.039270	-0.711050	
876	4.3800	-0.219239	1.426965	-0.566688	-0.131100	1.417459	-0.698960	-0.164031	1.407015	-0.407066	-0.098671	1.366469	-0.548843	-0.094134	0.930568	-0.438535	-0.085778	0.933405	-0.664582	-0.153327	1.008855	-0.411610	-0.147896	0.990401	-0.701307	-0.252190	0.991203	-0.504951	-0.251886	0.984875	-0.590068	-0.255186	0.987042	-0.552364	-0.229238	0.761475	-0.381857	-0.217259	0.703399	-0.373061	-0.156190	0.714694	-0.354181	-0.159984	0.775939	-0.361333	-0.204834	0.519609	-0.374180	-0.168061	0.489702	-0.501118	-0.284273	0.392936	-0.370992	-0.286111	0.351257	-0.381788	-0.232190	0.386839	-0.350271	-0.231541	0.347082	-0.354937	-0.262803	0.144974	-0.379330	-0.219239	0.152781	-0.450055	-0.303760	0.140005	-0.436628	-0.190644	0.060295	-0.337217	-0.139282	0.060844	-0.393973	-0.121413	0.054174	-0.383439	-0.204877	0.751315	-0.732207	-0.191975	0.691261	-0.738633	-0.127496	0.699528	-0.741907	-0.132983	0.759085	-0.737062	-0.198316	0.508888	-0.732395	-0.164068	0.490515	-0.610012	-0.274624	0.349020	-0.736728	-0.277105	0.309067	-0.728962	-0.219481	0.306504	-0.749860	-0.223959	0.350102	-0.755791	-0.248598	0.145450	-0.741609	-0.218843	0.157297	-0.664037	-0.300823	0.141999	-0.683955	-0.185549	0.060728	-0.765349	-0.141339	0.054167	-0.703391	-0.123816	0.040933	-0.711535	
877	4.3850	-0.219118	1.428155	-0.566476	-0.131112	1.418668	-0.698621	-0.163829	1.408334	-0.406929	-0.098566	1.367677	-0.548652	-0.094427	0.931959	-0.438402	-0.085812	0.935027	-0.664222	-0.153522	1.010350	-0.411658	-0.147723	0.992206	-0.701201	-0.252501	0.993150	-0.504955	-0.252041	0.986865	-0.590122	-0.255511	0.989047	-0.552436	-0.229201	0.762562	-0.381827	-0.217093	0.704529	-0.372943	-0.156076	0.715962	-0.354028	-0.160024	0.777195	-0.361252	-0.204051	0.520669	-0.373977	-0.167597	0.490665	-0.500968	-0.283890	0.394118	-0.370966	-0.286050	0.352565	-0.381655	-0.231890	0.387871	-0.350272	-0.231361	0.348163	-0.354981	-0.263154	0.146224	-0.379651	-0.219630	0.153981	-0.450380	-0.304152	0.140806	-0.437110	-0.190760	0.062787	-0.336812	-0.139253	0.063051	-0.393278	-0.121364	0.056533	-0.382592	-0.204631	0.753240	-0.732202	-0.191902	0.693172	-0.738836	-0.127387	0.701237	-0.741815	-0.132692	0.760787	-0.736730	-0.198093	0.510028	-0.732520	-0.164776	0.491456	-0.609914	-0.274615	0.350116	-0.736683	-0.277042	0.310162	-0.728795	-0.219562	0.307556	-0.749954	-0.224004	0.351141	-0.755900	-0.248502	0.146520	-0.741815	-0.218789	0.158415	-0.664251	-0.300797	0.142853	-0.684258	-0.185011	0.062274	-0.765474	-0.140847	0.055997	-0.703677	-0.123224	0.042793	-0.711785	
878	4.3900	-0.219004	1.429026	-0.566133	-0.131110	1.419564	-0.698409	-0.163614	1.409344	-0.406669	-0.098455	1.368634	-0.548456	-0.094709	0.933113	-0.438251	-0.085880	0.936343	-0.663917	-0.153775	1.011556	-0.411686	-0.147625	0.993634	-0.701109	-0.252818	0.994663	-0.504993	-0.252215	0.988387	-0.590186	-0.255834	0.990611	-0.552502	-0.229170	0.763404	-0.381731	-0.216874	0.705427	-0.372787	-0.155895	0.717043	-0.353926	-0.160046	0.778247	-0.361219	-0.203248	0.521566	-0.373766	-0.166934	0.491532	-0.500723	-0.283562	0.395192	-0.370965	-0.286031	0.353737	-0.381560	-0.231622	0.388746	-0.350292	-0.231252	0.349080	-0.355069	-0.263599	0.147321	-0.379964	-0.220164	0.155020	-0.450729	-0.304696	0.141466	-0.437563	-0.191020	0.065016	-0.336462	-0.139431	0.064986	-0.392733	-0.121522	0.058648	-0.381930	-0.204364	0.754788	-0.732219	-0.191774	0.694718	-0.739072	-0.127225	0.702621	-0.741758	-0.132388	0.762153	-0.736426	-0.197610	0.510899	-0.732739	-0.165279	0.492083	-0.609920	-0.274585	0.351149	-0.736767	-0.277141	0.311191	-0.728841	-0.219691	0.308417	-0.750043	-0.223987	0.351993	-0.756035	-0.248588	0.147370	-0.741968	-0.218899	0.159347	-0.664410	-0.300960	0.143476	-0.684492	-0.184568	0.063664	-0.765465	-0.140411	0.057788	-0.703740	-0.122671	0.044670	-0.711835	
879	4.3950	-0.218971	1.429613	-0.565765	-0.131093	1.420166	-0.698326	-0.163398	1.410054	-0.406297	-0.098366	1.369334	-0.548259	-0.094972	0.934031	-0.438082	-0.085981	0.937344	-0.663666	-0.154084	1.012480	-0.411699	-0.147601	0.994687	-0.701027	-0.253126	0.995712	-0.505056	-0.252413	0.989432	-0.590255	-0.256162	0.991726	-0.552567	-0.229141	0.764013	-0.381578	-0.216598	0.706103	-0.372602	-0.155653	0.717937	-0.353879	-0.160043	0.779107	-0.361233	-0.202463	0.522304	-0.373544	-0.166106	0.492330	-0.500387	-0.283323	0.396181	-0.370916	-0.286028	0.354770	-0.381521	-0.231394	0.389468	-0.350319	-0.231221	0.349824	-0.355184	-0.264159	0.148252	-0.380277	-0.220831	0.155913	-0.451103	-0.305383	0.141993	-0.437977	-0.191402	0.067021	-0.336240	-0.139790	0.066673	-0.392355	-0.121853	0.060521	-0.381467	-0.204084	0.755940	-0.732264	-0.191590	0.695878	-0.739319	-0.127008	0.703673	-0.741733	-0.132082	0.763179	-0.736163	-0.196915	0.511511	-0.733029	-0.165567	0.492444	-0.610016	-0.274545	0.352102	-0.736968	-0.277389	0.312168	-0.729103	-0.219864	0.309115	-0.750128	-0.223915	0.352695	-0.756173	-0.248813	0.148017	-0.742079	-0.219165	0.160132	-0.664522	-0.301296	0.143905	-0.684691	-0.184196	0.064903	-0.765333	-0.140080	0.059504	-0.703651	-0.122210	0.046439	-0.711702	
880	4.4000	-0.219082	1.429976	-0.565461	-0.131064	1.420476	-0.698365	-0.163184	1.410475	-0.405824	-0.098310	1.369813	-0.548069	-0.095222	0.934708	-0.437902	-0.086110	0.938049	-0.663473	-0.154437	1.013121	-0.411694	-0.147649	0.995383	-0.700954	-0.253412	0.996291	-0.505139	-0.252639	0.990018	-0.590328	-0.256498	0.992398	-0.552632	-0.229113	0.764408	-0.381377	-0.216276	0.706583	-0.372387	-0.155363	0.718635	-0.353881	-0.160013	0.779765	-0.361289	-0.201703	0.522878	-0.373291	-0.165181	0.493039	-0.499989	-0.283174	0.397040	-0.370851	-0.286082	0.355643	-0.381477	-0.231213	0.390024	-0.350343	-0.231251	0.350399	-0.355290	-0.264840	0.149030	-0.380588	-0.221632	0.156645	-0.451500	-0.306208	0.142380	-0.438345	-0.191901	0.068740	-0.336177	-0.140293	0.068136	-0.392177	-0.122342	0.062123	-0.381202	-0.203801	0.756685	-0.732340	-0.191343	0.696642	-0.739572	-0.126740	0.704385	-0.741740	-0.131778	0.763867	-0.735952	-0.196070	0.511875	-0.733363	-0.165662	0.492565	-0.610181	-0.274498	0.352962	-0.737271	-0.277779	0.313060	-0.729592	-0.220062	0.309666	-0.750207	-0.223807	0.353246	-0.756297	-0.249144	0.148473	-0.742157	-0.219564	0.160755	-0.664587	-0.301789	0.144153	-0.684892	-0.183904	0.065942	-0.765087	-0.139874	0.061069	-0.703398	-0.121872	0.048106	-0.711377	
881	4.4050	-0.219347	1.430128	-0.565327	-0.131048	1.420519	-0.698520	-0.163062	1.410612	-0.405352	-0.098289	1.370078	-0.547887	-0.095458	0.935139	-0.437719	-0.086268	0.938444	-0.663337	-0.154824	1.013473	-0.411673	-0.147767	0.995732	-0.700886	-0.253676	0.996414	-0.505232	-0.252899	0.990172	-0.590396	-0.256837	0.992657	-0.552689	-0.229083	0.764596	-0.381134	-0.215929	0.706860	-0.372172	-0.155038	0.719124	-0.353925	-0.159954	0.780218	-0.361373	-0.201013	0.523263	-0.373049	-0.164201	0.493635	-0.499548	-0.283111	0.397777	-0.370739	-0.286153	0.356335	-0.381478	-0.231075	0.390422	-0.350340	-0.231347	0.350806	-0.355372	-0.265624	0.149614	-0.380888	-0.222555	0.157197	-0.451910	-0.307166	0.142615	-0.438663	-0.192474	0.070210	-0.336212	-0.140958	0.069343	-0.392168	-0.122958	0.063478	-0.381162	-0.203521	0.757016	-0.732445	-0.191037	0.696991	-0.739815	-0.126420	0.704762	-0.741770	-0.131487	0.764214	-0.735794	-0.195132	0.512007	-0.733731	-0.165560	0.492478	-0.610395	-0.274453	0.353681	-0.737664	-0.278246	0.313818	-0.730232	-0.220274	0.310058	-0.750281	-0.223671	0.353643	-0.756420	-0.249549	0.148749	-0.742208	-0.220113	0.161244	-0.664613	-0.302436	0.144238	-0.685123	-0.183669	0.066759	-0.764699	-0.139823	0.062462	-0.702969	-0.121650	0.049644	-0.710868	
